<svg version="1.0" xmlns="http://www.w3.org/2000/svg" width="367pt" height="368pt" viewBox="0 0 367 368"><path d="M162 2.675c-37.053 5.963-62.01 16.247-89.256 36.779-27.874 21.005-50.57 52.768-61.773 86.452C-6.802 179.343.939 237.62 32 284.221c58.439 87.68 177.39 107.909 261.479 44.469 68.595-51.751 91.217-143.77 54.753-222.722-13.863-30.017-40.107-59.448-68.518-76.837-22.087-13.519-44.062-21.618-69.333-25.555-9.351-1.456-41.24-2.051-48.381-.901m50.964 25.976c16.781 2.961 38.293 11.295 52.916 20.502 41.691 26.247 68.604 68.189 74.497 116.097l.585 4.75h-38.481C256.535 170 260 168.958 260 182.777c0 6.326.435 9.399 1.557 11l1.556 2.223h78.031l-.671 5.75c-8.033 68.828-61.768 125.59-129.924 137.242-6.461 1.104-12.603 2.008-13.648 2.008-1.836 0-1.901-1.363-1.901-39.943v-39.944l-2.223-1.556c-1.601-1.122-4.674-1.557-11-1.557-13.84 0-12.777-3.619-12.777 43.512v39.512l-4.25-.576c-36.508-4.949-68.01-20.636-93.623-46.621-12.1-12.276-20.706-24.42-28.577-40.327-8.864-17.913-13.565-33.482-15.929-52.75l-.583-4.75h37.91c33.129 0 38.107-.198 39.481-1.571 1.216-1.217 1.571-3.803 1.571-11.444 0-9.067-.181-9.998-2.223-11.428-1.914-1.341-7.362-1.557-39.321-1.557H26.358l.807-6.75c5.479-45.799 33.929-89.528 74.335-114.257 9.339-5.716 23.838-12.378 33.848-15.554 10.177-3.229 24.953-6.403 29.902-6.423L169 27v35.277c0 30.311.219 35.591 1.557 37.5 1.43 2.042 2.361 2.223 11.428 2.223 7.641 0 10.227-.355 11.444-1.571C194.8 99.058 195 94.214 195 62.448v-36.41l4.75.56c2.613.308 8.559 1.232 13.214 2.053" fill="#000000FF" stroke="#000000FF"/><path d="M163.5 27.689c-41.472 5.375-82.811 30.055-107.074 63.925-7.662 10.695-17.133 28.734-21.235 40.443-3.078 8.784-6.482 23.393-7.618 32.693l-.642 5.25h37.835c28.093 0 38.143.309 39.034 1.2 1.259 1.259 1.743 20.222.593 23.218-.539 1.405-4.923 1.582-39.115 1.582H26.77l.688 5.75c8.273 69.072 62.17 125.774 130.012 136.777 4.967.806 9.593 1.467 10.28 1.469.979.003 1.25-8.621 1.25-39.796 0-29.622.307-40.107 1.2-41 1.646-1.646 21.954-1.646 23.6 0 .893.893 1.2 11.408 1.2 41.138v39.938l6.75-.686c70.509-7.17 129.994-66.448 137.818-137.34l.69-6.25h-38.929c-28.945 0-39.237-.308-40.129-1.2-1.646-1.646-1.646-21.954 0-23.6.892-.892 11.156-1.2 40-1.2 30.375 0 38.799-.271 38.796-1.25-.012-3.816-3.391-21.474-5.574-29.13-3.011-10.557-10.454-27.393-16.403-37.099C292.33 60.608 249.204 32.992 200.75 27.43l-5.75-.66v36.033c0 19.818-.273 36.745-.607 37.615-.503 1.312-2.516 1.582-11.8 1.582-7.372 0-11.603-.41-12.393-1.2-.889-.889-1.2-10.6-1.2-37.5 0-28.453-.27-36.268-1.25-36.15-.687.082-2.6.325-4.25.539m-5.611 118.381c8.499 1.822 17.077 11.224 19.553 21.43 2.98 12.288 2.306 32.755-1.405 42.668-4.429 11.83-11.96 17.227-24.037 17.227-8.993 0-13.949-2.181-19.385-8.531-8.499-9.93-11.45-30.098-7.443-50.864 3.414-17.689 15.311-25.663 32.717-21.93m65.719 1.68c1.039 1.369 1.335 8.768 1.36 34L225 214h7.14c5.627 0 7.421.371 8.468 1.75 1.667 2.196 1.787 8.455.192 10.05-1.652 1.652-44.636 1.688-48.253.039-2.266-1.032-2.547-1.748-2.547-6.5V214h20v-25.5c0-14.025-.259-25.5-.575-25.5-.317 0-3.66 1.833-7.43 4.073-5.749 3.415-7.189 3.893-8.925 2.964-1.602-.857-2.07-2.082-2.07-5.417 0-4.987.513-5.564 11.772-13.235 7.109-4.843 8.2-5.27 13.618-5.325 4.485-.046 6.206.357 7.218 1.69" fill="#FFFFFFFF" stroke="#FFFFFFFF"/><path d="M1.136 283.25L1 367h365l-.081-82.25-.081-82.25-1.906 11c-5.056 29.164-16.876 56.589-34.697 80.5-7.262 9.744-25.579 28.002-35.735 35.621-20.429 15.325-44.701 26.6-69.5 32.285-15.21 3.487-25.689 4.362-46.101 3.854-16.082-.401-21.497-.942-31.673-3.164-55.47-12.112-101.327-47.765-126.709-98.511C11.87 248.794 5.376 228.228 3.071 212a3046.64 3046.64 0 0 0-1.432-10c-.201-1.375-.428 35.188-.503 81.25M1.15 84.25c.082 45.788.312 81.9.509 80.25C8.544 107.105 39.941 57.668 88.5 27.765 109.632 14.752 134.055 6.01 159 2.531c8.385-1.169-.326-1.337-74.25-1.428L1 1l.15 83.25M208 2.505c39.874 5.452 76.388 23.717 105.103 52.576 27.825 27.965 45.234 62.445 51.345 101.697 1.208 7.755 1.369-.395 1.455-73.528L366 1l-83.75.103c-73.184.09-82.551.267-74.25 1.402" fill="#FFFFFFFF" stroke="#FFFFFFFF"/><path d="M140.5 147.503c-6.189 2.189-10.997 8.052-13.65 16.644-1.854 6.002-2.278 9.741-2.31 20.353-.044 14.273 1.226 21.237 5.242 28.754 9.32 17.443 36.071 15.117 43.13-3.748 4.705-12.577 4.92-34.884.461-47.939-2.114-6.188-8.451-12.682-13.989-14.337-5.407-1.616-13.892-1.493-18.884.273m17.477 10.303c4.478 3.297 6.28 10.884 6.339 26.694.058 15.604-1.556 23.498-5.578 27.276-6.165 5.792-14.547 4.722-18.45-2.356-5.087-9.224-5.423-37.669-.557-47.19 3.534-6.915 12.056-8.982 18.246-4.424M201.24 153.316l-9.259 6.184.259 4.792.26 4.792 8.5-5.403 8.5-5.403.266 27.861.265 27.861H190v10h50v-10h-18v-67l-5.75.066c-5.335.061-6.419.512-15.01 6.25" fill="#000000FF" stroke="#000000FF"/><path d="M146.763 159.565c-5.732 3.11-8.356 14.309-7.464 31.854.896 17.605 3.748 23.581 11.256 23.581 4.693 0 9.737-4.821 11.571-11.06 1.705-5.8 1.751-31.933.066-37.636-2.179-7.373-8.872-10.296-15.429-6.739" fill="#FFFFFFFF" stroke="#FFFFFFFF"/></svg>