<?xml version="1.0" standalone="no"?><!DOCTYPE svg PUBLIC "-//W3C//DTD SVG 1.1//EN" "http://www.w3.org/Graphics/SVG/1.1/DTD/svg11.dtd"><svg t="1720684636728" class="icon" viewBox="0 0 1024 1024" version="1.1" xmlns="http://www.w3.org/2000/svg" p-id="7207" xmlns:xlink="http://www.w3.org/1999/xlink" width="16" height="16"><path d="M988.484143 487.734885l-60.328305 0c-2.675852-47.800451-13.379261-94.262977-32.110227-138.292909-21.041929-49.624896-51.084452-94.141347-89.276161-132.454686-38.313339-38.313339-82.82979-68.355862-132.454686-89.276161-44.029932-18.609336-90.492458-29.434375-138.292909-32.110227L536.021855 35.150968l-1.946074 0-43.786673 0-1.946074 0 0 60.328305c-47.800451 2.675852-94.262977 13.500891-138.292909 32.110227-49.624896 21.041929-94.141347 51.084452-132.454686 89.276161S148.996318 299.695451 127.954389 349.320347c-18.609336 44.029932-29.434375 90.492458-32.110227 138.292909L35.515857 487.613256l0 47.800451 60.449935 0c2.675852 47.800451 13.500891 94.262977 32.110227 138.292909 21.041929 49.624896 51.084452 94.141347 89.276161 132.454686 38.313339 38.313339 82.82979 68.355862 132.454686 89.276161 44.029932 18.609336 90.492458 29.434375 138.292909 32.110227l0 60.449935 1.946074 0 43.786673 0 1.946074 0 0-60.449935c47.800451-2.675852 94.262977-13.379261 138.292909-32.110227 49.624896-21.041929 94.141347-51.084452 132.454686-89.276161 38.313339-38.313339 68.355862-82.82979 89.276161-132.454686 18.609336-44.029932 29.434375-90.492458 32.110227-138.292909l60.328305 0L988.240884 487.734885 988.484143 487.734885zM860.164865 487.734885l-103.50683 0c-5.473334-56.679416-30.164153-109.223423-70.910084-149.969355-40.745932-40.745932-93.289939-65.43675-149.969355-70.910084l0-103.50683C709.344103 175.146692 848.366789 314.291008 860.164865 487.734885L860.164865 487.734885zM511.939185 709.587362c-109.223423 0-198.013066-88.789642-198.013066-198.013066 0-109.223423 88.789642-198.013066 198.013066-198.013066 109.223423 0 198.013066 88.789642 198.013066 198.013066C709.952251 620.797719 621.162608 709.587362 511.939185 709.587362L511.939185 709.587362zM488.099774 163.348616l0 103.50683c-56.679416 5.473334-109.223423 30.164153-149.969355 70.910084C297.384487 378.511462 272.693669 431.05547 267.341965 487.734885L163.713505 487.734885C175.511581 314.291008 314.655897 175.146692 488.099774 163.348616L488.099774 163.348616zM163.713505 535.535337l103.50683 0c5.473334 56.679416 30.164153 109.223423 70.910084 149.969355 40.745932 40.745932 93.289939 65.43675 149.969355 70.910084l0 103.50683C314.655897 848.0019 175.511581 708.979214 163.713505 535.535337L163.713505 535.535337zM535.900226 859.799976l0-103.50683c56.679416-5.473334 109.223423-30.164153 149.969355-70.910084 40.745932-40.745932 65.43675-93.289939 70.910084-149.969355L860.164865 535.413707C848.366789 708.979214 709.344103 848.0019 535.900226 859.799976L535.900226 859.799976z" fill="#1296db" p-id="7208"></path><path d="M511.939185 511.574296 511.939185 511.574296zM431.785248 511.574296 431.785248 511.574296z" fill="#1296db" p-id="7209"></path></svg>