<?xml version="1.0" standalone="no"?><!DOCTYPE svg PUBLIC "-//W3C//DTD SVG 1.1//EN" "http://www.w3.org/Graphics/SVG/1.1/DTD/svg11.dtd"><svg t="1721199847981" class="icon" viewBox="0 0 1024 1024" version="1.1" xmlns="http://www.w3.org/2000/svg" p-id="7791" xmlns:xlink="http://www.w3.org/1999/xlink" width="16" height="16"><path d="M279.637333 503.466667l-46.378666 82.944a27.733333 27.733333 0 0 1-24.192 14.208H68.693333a27.733333 27.733333 0 1 1 0-55.466667h124.117334l63.36-113.493333a27.733333 27.733333 0 0 1 48.810666 0.64l66.346667 126.549333 67.242667-91.861333a27.733333 27.733333 0 0 1 46.805333 3.242666l70.016 130.176 78.933333-253.781333a27.733333 27.733333 0 0 1 47.957334-9.301333l73.728 90.325333a27.733333 27.733333 0 1 1-42.965334 35.072l-41.088-50.346667-83.2 267.562667a27.733333 27.733333 0 0 1-50.901333 4.906667l-80.512-149.632-67.498667 92.288a27.733333 27.733333 0 0 1-46.933333-3.456l-63.274667-120.618667z" fill="#7dc5eb" p-id="7792"></path><path d="M273.92 731.306667a29.866667 29.866667 0 1 1 47.018667-36.864c57.898667 73.813333 145.28 117.589333 239.701333 117.589333 169.301333 0 306.730667-139.861333 306.730667-312.746667 0-172.8-137.429333-312.746667-306.730667-312.746666-109.354667 0-208.725333 58.88-263.722667 153.002666a29.866667 29.866667 0 0 1-51.626666-30.122666c65.578667-112.213333 184.448-182.613333 315.349333-182.613334 202.496 0 366.464 166.912 366.464 372.48 0 205.653333-163.968 372.48-366.464 372.48-113.066667 0-217.642667-52.394667-286.72-140.458666z" fill="#7dc5eb" p-id="7793"></path><path d="M796.373333 786.346667a33.024 33.024 0 0 1 46.378667-46.933334l139.946667 138.282667a33.024 33.024 0 1 1-46.421334 46.933333l-139.946666-138.282666z" fill="#7dc5eb" p-id="7794"></path></svg>