<?xml version="1.0" standalone="no"?><!DOCTYPE svg PUBLIC "-//W3C//DTD SVG 1.1//EN" "http://www.w3.org/Graphics/SVG/1.1/DTD/svg11.dtd"><svg t="1721199738594" class="icon" viewBox="0 0 1024 1024" version="1.1" xmlns="http://www.w3.org/2000/svg" p-id="4529" xmlns:xlink="http://www.w3.org/1999/xlink" width="16" height="16"><path d="M960.32 782.613333L865.706667 688c-12.8-12.8-29.76-19.84-47.68-19.84-11.413333 0-22.293333 3.093333-32.106667 8.426667l-39.573333-39.573334c115.2-128.64 111.466667-326.933333-12.16-450.453333-127.893333-127.893333-336-127.893333-464 0s-127.893333 336 0 464c64 64 147.946667 96 232 96 76.373333 0 152.426667-26.666667 213.76-79.466667l39.786666 39.786667c-13.866667 25.6-10.346667 58.133333 11.306667 79.786667l94.613333 94.613333c13.12 13.12 30.4 19.733333 47.68 19.733333 17.28 0 34.56-6.613333 47.786667-19.733333l3.306667-3.306667c12.693333-12.8 19.733333-29.653333 19.733333-47.68s-7.146667-34.986667-19.84-47.68z m-285.76-368c0-95.04-77.333333-172.373333-172.373333-172.373333-11.84 0-21.333333-9.493333-21.333334-21.333333s9.493333-21.333333 21.333334-21.333334c118.613333 0 215.04 96.533333 215.04 215.04 0 11.84-9.493333 21.333333-21.333334 21.333334s-21.333333-9.6-21.333333-21.333334z" p-id="4530" fill="#7dc5eb"></path><path d="M789.333333 944H149.333333c-35.306667 0-64-28.693333-64-64V496c0-11.84 9.493333-21.333333 21.333334-21.333333s21.333333 9.493333 21.333333 21.333333v384c0 11.733333 9.6 21.333333 21.333333 21.333333h640c11.84 0 21.333333 9.493333 21.333334 21.333334s-9.493333 21.333333-21.333334 21.333333z" p-id="4531" fill="#7dc5eb"></path></svg>